<?xml version="1.0" encoding="UTF-8"?>
<svg version="1.1" xmlns="http://www.w3.org/2000/svg" width="600" height="542">
<path d="M0 0 C4.2246635 3.46937003 7.25936056 7.44605042 8.98828125 12.6328125 C9.80579394 22.71157607 9.62724271 31.83498837 3.98828125 40.6328125 C-1.45724069 46.89916679 -6.45905113 50.17754574 -14.76171875 51.0078125 C-23.15100667 50.73615937 -29.76815976 46.48807084 -36.00390625 41.21875 C-39.05003211 38.81266615 -40.82281194 37.5893363 -44.7890625 37.734375 C-66.87334849 41.39234079 -84.83666312 49.99690376 -98.26171875 68.1953125 C-131.89341327 116.30427058 -125.88006786 189.29986924 -126.85438538 245.08474731 C-127.43824502 277.99770614 -129.57460965 310.13583683 -135.01171875 342.6328125 C-134.37105469 342.973125 -133.73039062 343.3134375 -133.0703125 343.6640625 C-117.73602766 352.2567467 -110.96695777 367.36119043 -106.01171875 383.6328125 C-104.71963365 388.57992156 -103.79544828 393.58085811 -103.01171875 398.6328125 C-102.82738281 399.80070312 -102.64304687 400.96859375 -102.453125 402.171875 C-99.51543959 426.74804922 -101.16484035 455.01933609 -113.44921875 477.0078125 C-116.09021031 482.00755224 -116.22721202 484.5941025 -114.68359375 489.9453125 C-112.05180433 500.47247018 -113.93114961 511.59443438 -119.33203125 520.91015625 C-125.6999365 529.97485198 -134.13524868 536.24356736 -145.01171875 538.6328125 C-164.03387424 540.26103714 -182.44543176 536.33791628 -197.37890625 523.94921875 C-200.39483997 521.30502391 -203.21424467 518.50646591 -206.01171875 515.6328125 C-207.02685547 514.61380859 -207.02685547 514.61380859 -208.0625 513.57421875 C-218.97140107 501.93967016 -225.19616795 486.59791528 -225.01171875 470.6328125 C-224.39807064 462.59874264 -222.69344725 455.78523477 -219.01171875 448.6328125 C-220.17356689 448.45866821 -220.17356689 448.45866821 -221.35888672 448.28100586 C-227.21465902 447.39306547 -233.05965233 446.46596508 -238.89453125 445.44921875 C-251.34167807 443.28538931 -263.76334886 441.27976569 -276.32421875 439.8828125 C-277.35240723 439.76752197 -278.3805957 439.65223145 -279.43994141 439.53344727 C-295.93729346 437.79473639 -312.37308966 437.4303904 -328.94921875 437.4453125 C-329.98264404 437.44525208 -331.01606934 437.44519165 -332.08081055 437.44512939 C-351.84953313 437.46157147 -371.39831966 438.21994797 -390.9609375 441.265625 C-394.33536306 441.67176585 -397.61616492 441.69260842 -401.01171875 441.6328125 C-401.01171875 442.2928125 -401.01171875 442.9528125 -401.01171875 443.6328125 C-399.93857422 443.99052734 -399.93857422 443.99052734 -398.84375 444.35546875 C-384.89907368 450.64499862 -376.59225695 466.23241186 -371.01171875 479.6328125 C-370.64820313 480.43976563 -370.2846875 481.24671875 -369.91015625 482.078125 C-366.20759778 492.60626952 -366.49934304 506.11126171 -370.875 516.3671875 C-375.82098862 526.22517168 -383.84603605 533.47058061 -394.203125 537.28515625 C-399.07272086 538.82704436 -403.61588876 539.13345019 -408.69921875 539.0703125 C-409.5713501 539.06201416 -410.44348145 539.05371582 -411.34204102 539.04516602 C-430.87890643 538.54016563 -447.76634431 528.6409988 -461.109375 514.76953125 C-474.32842615 499.92184957 -478.92346368 483.48901615 -478.18652344 463.99658203 C-477.53602874 455.20036737 -473.20357569 447.75509801 -467.01171875 441.6328125 C-460.12582606 435.92143663 -452.7905151 433.32376458 -444.296875 431.06640625 C-440.73520523 430.00883385 -437.58814604 428.46494144 -434.2890625 426.76171875 C-405.130291 411.81102195 -371.23433376 407.68576453 -339.01171875 404.6328125 C-337.92246094 404.52751221 -336.83320313 404.42221191 -335.7109375 404.3137207 C-324.41310977 403.36008503 -313.09195588 403.43351597 -301.76171875 403.4453125 C-300.69313629 403.44591675 -299.62455383 403.446521 -298.52359009 403.44714355 C-246.32318842 403.52731574 -183.09804743 408.04237909 -141.01171875 442.6328125 C-144.03708234 436.09802715 -147.7226266 430.4103165 -152.01171875 424.6328125 C-152.60855469 423.8284375 -153.20539063 423.0240625 -153.8203125 422.1953125 C-178.33949197 390.38664724 -214.92840941 374.79914553 -254.01171875 369.6328125 C-272.55834027 367.52758217 -290.88228797 367.23860941 -309.51171875 368.3828125 C-310.21825592 368.42604645 -310.92479309 368.4692804 -311.65274048 368.51382446 C-368.24169544 372.0705744 -424.26494643 385.79378653 -478.79296875 400.7421875 C-479.87384766 401.03665771 -480.95472656 401.33112793 -482.06835938 401.63452148 C-483.95619761 402.1545539 -485.84072359 402.68685654 -487.72070312 403.23461914 C-493.504919 404.83322771 -493.504919 404.83322771 -496.1484375 403.7878418 C-499.43973816 401.74759764 -500.72283618 399.54072914 -501.88671875 395.8828125 C-502.08338666 390.76944683 -500.7265068 386.90295805 -497.63671875 382.8125 C-488.61386279 373.13895731 -475.59657609 367.62217016 -464.01171875 361.6328125 C-464.78773438 360.97796875 -465.56375 360.323125 -466.36328125 359.6484375 C-469.28835128 357.17834781 -472.20986552 354.70408743 -475.12988281 352.22802734 C-476.34996956 351.19377114 -477.57063732 350.16019979 -478.79199219 349.12744141 C-489.63584199 339.95117523 -500.22623988 330.5538224 -510.19140625 320.421875 C-512.04915144 318.59602243 -513.97339905 316.89219295 -515.94921875 315.1953125 C-522.51315842 309.53230573 -528.51280951 303.35481455 -534.1484375 296.7734375 C-536.30058652 294.30094764 -538.53152594 291.91009893 -540.76171875 289.5078125 C-546.54338095 283.15760561 -551.81617374 276.4665761 -557.01171875 269.6328125 C-557.47755371 269.0238916 -557.94338867 268.4149707 -558.42333984 267.78759766 C-578.10059364 241.96162716 -592.86587012 214.9080807 -591.01171875 181.6328125 C-589.32332012 169.30285555 -581.37172614 158.57006753 -571.91015625 150.9375 C-559.38416249 141.59537088 -544.91189028 135.93848958 -530.01171875 131.6328125 C-529.35719727 131.44235352 -528.70267578 131.25189453 -528.02832031 131.05566406 C-518.54709487 128.38196816 -508.87727225 126.90015432 -499.13671875 125.5078125 C-497.50126099 125.26973877 -497.50126099 125.26973877 -495.83276367 125.02685547 C-473.70586435 122.03847497 -451.50168289 121.28359601 -429.19921875 121.3828125 C-427.34993271 121.38696671 -427.34993271 121.38696671 -425.46328735 121.39120483 C-404.25480743 121.4467034 -383.16143932 122.08102277 -362.01171875 123.6328125 C-360.56462511 123.73580675 -359.11752221 123.83867101 -357.67041016 123.94140625 C-304.7943378 127.74673651 -252.17852627 134.680146 -199.82421875 142.8828125 C-199.11760353 142.99351955 -198.41098831 143.10422661 -197.68296051 143.21828842 C-192.94419453 143.96147768 -188.20626114 144.70979025 -183.46875 145.4609375 C-182.27166916 145.65031387 -181.07458832 145.83969025 -179.8412323 146.0348053 C-172.88060321 147.14544302 -165.94056373 148.33838825 -159.01171875 149.6328125 C-158.89957031 148.09753906 -158.89957031 148.09753906 -158.78515625 146.53125 C-155.61410622 108.76023193 -146.17772415 66.49848512 -120.01171875 37.6328125 C-119.57375977 37.14570801 -119.13580078 36.65860352 -118.68457031 36.15673828 C-97.28468361 12.65008786 -70.13835038 5.29133266 -39.84765625 -0.25390625 C-36.44929365 -0.87718318 -33.12392119 -1.5693278 -29.79296875 -2.484375 C-20.24734766 -4.71300141 -8.60186602 -5.1997463 0 0 Z M-381.01171875 149.6328125 C-376.5156671 155.65188807 -376.5156671 155.65188807 -371.93359375 161.60546875 C-361.71482697 174.7582421 -352.70456336 188.43615082 -344.01171875 202.6328125 C-338.60800543 202.36764457 -333.20436472 202.10105279 -327.80078125 201.83325195 C-325.97007048 201.74270997 -324.13934182 201.65252884 -322.30859375 201.56274414 C-310.87027441 201.00148889 -299.43932175 200.38340559 -288.01171875 199.6328125 C-291.69690555 191.79736234 -295.8564198 184.33316869 -300.26171875 176.8828125 C-300.77371826 176.01575684 -301.28571777 175.14870117 -301.81323242 174.25537109 C-302.90469968 172.42189391 -304.0332894 170.6101667 -305.19189453 168.81835938 C-306.65429768 166.25846721 -307.56954166 164.14496174 -308.51513672 161.40039062 C-310.44785708 156.50079336 -312.45498823 152.51230122 -317.01171875 149.6328125 C-326.77392506 147.07557436 -337.37097531 148.05401319 -347.36633301 148.53417969 C-351.15947026 148.69896569 -354.9543027 148.77115584 -358.75 148.8515625 C-366.17523099 149.02230949 -373.59202386 149.29466051 -381.01171875 149.6328125 Z M-273.01171875 150.6328125 C-270.91616857 158.03342413 -268.38219355 165.2007011 -265.63671875 172.3828125 C-262.62272178 180.32941611 -259.66980537 188.28604172 -256.88671875 196.31640625 C-256.22024679 198.56148999 -256.22024679 198.56148999 -255.01171875 199.6328125 C-252.19941109 199.82962012 -249.40618524 199.96505814 -246.58984375 200.0625 C-244.77782058 200.13455951 -242.96580935 200.2069199 -241.15380859 200.27954102 C-240.19287292 200.31653107 -239.23193726 200.35352112 -238.24188232 200.39163208 C-222.26242284 201.01458457 -206.32275455 201.85504048 -190.38671875 203.1953125 C-189.62234497 203.25934265 -188.85797119 203.3233728 -188.07043457 203.38934326 C-180.04383076 204.06710574 -172.02443606 204.80635344 -164.01171875 205.6328125 C-162.88139422 201.46074568 -162.57955958 197.28854405 -162.2578125 192.9921875 C-162.19263931 192.15117493 -162.12746613 191.31016235 -162.06031799 190.44366455 C-161.92337978 188.66520825 -161.78816124 186.88661882 -161.65454102 185.10791016 C-161.45097928 182.40617871 -161.24054682 179.70504616 -161.02929688 177.00390625 C-160.89672056 175.27086502 -160.76454628 173.53779298 -160.6328125 171.8046875 C-160.57032822 171.00544861 -160.50784393 170.20620972 -160.44346619 169.38275146 C-160.0781602 164.4509427 -159.95569662 159.57826322 -160.01171875 154.6328125 C-170.59465419 154.14469973 -181.1779938 153.66597965 -191.76171875 153.1953125 C-192.934517 153.1431489 -192.934517 153.1431489 -194.13100815 153.08993149 C-220.41961534 151.92373282 -246.69874523 151.02775804 -273.01171875 150.6328125 Z M-437.91943359 152.8046875 C-439.97714137 153.00445563 -442.03538228 153.19779209 -444.09375 153.390625 C-452.45060618 154.18964186 -460.73042403 155.25200587 -469.01171875 156.6328125 C-467.23346679 159.70245328 -465.41675026 162.51001809 -463.11328125 165.20703125 C-462.55809814 165.86517822 -462.00291504 166.5233252 -461.4309082 167.20141602 C-460.83882568 167.90065186 -460.24674316 168.5998877 -459.63671875 169.3203125 C-448.15861569 183.07400145 -438.0754597 197.82963444 -428.01171875 212.6328125 C-416.32790854 211.20859632 -404.66805627 209.64064359 -393.01171875 208.0078125 C-391.35027491 207.77593781 -389.68881664 207.54416649 -388.02734375 207.3125 C-384.02196892 206.75378958 -380.01678902 206.19370182 -376.01171875 205.6328125 C-376.6250708 204.54258789 -377.23842285 203.45236328 -377.87036133 202.32910156 C-378.21537186 201.71585022 -378.56038239 201.10259888 -378.91584778 200.47076416 C-380.62641819 197.6018628 -382.64644013 195.01407141 -384.69921875 192.3828125 C-385.13419678 191.82489014 -385.5691748 191.26696777 -386.01733398 190.69213867 C-392.38445878 182.55797217 -398.9204501 174.62170492 -405.87890625 166.984375 C-407.87089434 164.78808043 -409.82179187 162.56256565 -411.76171875 160.3203125 C-412.84433803 159.09051687 -413.92760612 157.86129189 -415.01171875 156.6328125 C-415.87796875 155.6428125 -416.74421875 154.6528125 -417.63671875 153.6328125 C-422.70019688 149.36883091 -431.6121986 152.18978013 -437.91943359 152.8046875 Z M-525.53125 179.125 C-533.23256248 186.91120884 -535.39812482 195.2793452 -535.3840332 206.14013672 C-535.16052462 216.07208646 -532.71525918 225.87263691 -528.01171875 234.6328125 C-519.97238238 232.75968203 -511.93960178 230.86180726 -503.91796875 228.9140625 C-502.66717529 228.61056885 -501.41638184 228.3070752 -500.12768555 227.99438477 C-497.64959143 227.39231876 -495.17186983 226.78871678 -492.69458008 226.18334961 C-484.4934711 224.19154754 -476.2722889 222.36088942 -468.01171875 220.6328125 C-469.28638918 217.84088884 -470.60325844 215.79199619 -472.77392578 213.62768555 C-473.32855499 213.06997971 -473.8831842 212.51227386 -474.45462036 211.93766785 C-475.05354095 211.34593277 -475.65246155 210.75419769 -476.26953125 210.14453125 C-476.89141327 209.52310745 -477.51329529 208.90168365 -478.15402222 208.26142883 C-479.47141089 206.94705834 -480.79122626 205.63511625 -482.11328125 204.32543945 C-484.11378021 202.34304346 -486.10631388 200.35291732 -488.09765625 198.36132812 C-494.23432751 192.24194639 -500.38804396 186.22896056 -507.01171875 180.6328125 C-509.38961114 178.47329798 -511.76277586 176.30910676 -514.12890625 174.13671875 C-518.69570629 170.48896353 -522.09266009 175.95931405 -525.53125 179.125 Z M-214.32421875 210.5703125 C-215.77723892 210.63566193 -215.77723892 210.63566193 -217.25961304 210.70233154 C-222.70757838 210.94996371 -228.15428916 211.21489176 -233.60015869 211.50506592 C-235.16474449 211.58794608 -236.72947976 211.66806817 -238.29437256 211.74493408 C-240.29832631 211.84484428 -242.30155678 211.95897985 -244.3046875 212.07421875 C-245.39676514 212.13424072 -246.48884277 212.1942627 -247.61401367 212.25610352 C-248.40525635 212.38041748 -249.19649902 212.50473145 -250.01171875 212.6328125 C-251.65510797 215.91959094 -249.91952629 219.11908281 -248.921875 222.484375 C-248.6984996 223.25840668 -248.47512421 224.03243835 -248.24497986 224.82992554 C-247.52816938 227.30791275 -246.80132323 229.78282845 -246.07421875 232.2578125 C-245.5872281 233.93470357 -245.10089147 235.61178472 -244.61523438 237.2890625 C-243.4216474 241.40589193 -242.21905037 245.51999394 -241.01171875 249.6328125 C-240.31014648 249.67245117 -239.60857422 249.71208984 -238.88574219 249.75292969 C-216.89924694 251.04206336 -194.85332659 252.97520451 -173.3828125 258.1171875 C-170.9275563 258.73906074 -170.9275563 258.73906074 -168.01171875 258.6328125 C-166.56986678 248.61654297 -165.63339541 238.59878852 -164.88671875 228.5078125 C-164.75547607 226.74763794 -164.75547607 226.74763794 -164.62158203 224.9519043 C-164.25486487 219.83003881 -163.96688005 214.77018303 -164.01171875 209.6328125 C-180.81579005 209.33053918 -197.53954228 209.80748943 -214.32421875 210.5703125 Z M-289.6328125 216.55859375 C-290.91551781 216.72007149 -290.91551781 216.72007149 -292.22413635 216.8848114 C-294.03939514 217.11461986 -295.85424402 217.34768589 -297.66870117 217.58374023 C-300.40654834 217.93976374 -303.14546082 218.28625072 -305.88476562 218.63085938 C-314.96132325 219.78317675 -324.00560644 221.00868366 -333.01171875 222.6328125 C-330.91463042 229.21250226 -328.48862091 235.61266104 -325.88671875 242.0078125 C-325.17504083 243.76532536 -324.46407156 245.52312539 -323.75390625 247.28125 C-323.44308105 248.04614746 -323.13225586 248.81104492 -322.81201172 249.59912109 C-322.1594778 251.25732961 -321.57523059 252.94227697 -321.01171875 254.6328125 C-320.3561499 254.55240723 -319.70058105 254.47200195 -319.02514648 254.38916016 C-300.37198803 252.13295032 -281.76434133 250.68777773 -263.01171875 249.6328125 C-263.94220655 243.34430252 -267.08643712 237.96262817 -269.90380859 232.34765625 C-270.88781282 230.38062545 -271.85440396 228.4056548 -272.8203125 226.4296875 C-273.4429701 225.17916897 -274.06663335 223.92915055 -274.69140625 222.6796875 C-275.25585449 221.54370117 -275.82030273 220.40771484 -276.40185547 219.23730469 C-279.57774599 214.09923977 -284.395211 215.86866124 -289.6328125 216.55859375 Z M-368.22607422 228.33544922 C-369.04727753 228.48915985 -369.86848083 228.64287048 -370.71456909 228.80123901 C-371.59380035 228.96995514 -372.47303162 229.13867126 -373.37890625 229.3125 C-374.29125031 229.48532501 -375.20359436 229.65815002 -376.14358521 229.83621216 C-378.07214542 230.20262191 -380.00035092 230.5709029 -381.92822266 230.94091797 C-384.86774441 231.50417672 -387.80875156 232.05911872 -390.75 232.61328125 C-392.62639792 232.9708516 -394.50270318 233.32890864 -396.37890625 233.6875 C-397.25408905 233.85216766 -398.12927185 234.01683533 -399.03097534 234.18649292 C-403.49252623 235.04922195 -407.73090102 236.06466119 -412.01171875 237.6328125 C-410.1940466 242.64672837 -407.64228545 247.25194047 -405.13671875 251.9453125 C-404.26350257 253.58680345 -403.39109823 255.22872654 -402.51953125 256.87109375 C-402.1342627 257.59337158 -401.74899414 258.31564941 -401.35205078 259.05981445 C-399.52761763 262.56212792 -397.76975147 266.09680274 -396.01171875 269.6328125 C-394.82731201 269.37064941 -393.64290527 269.10848633 -392.42260742 268.83837891 C-387.98181933 267.8560042 -383.54043548 266.8763459 -379.09887695 265.89746094 C-377.18530471 265.47533757 -375.27188965 265.05250096 -373.35864258 264.62890625 C-370.59107875 264.01630011 -367.82302199 263.40598851 -365.0546875 262.796875 C-364.165466 262.60063538 -363.27624451 262.40439575 -362.3600769 262.20220947 C-356.85387077 260.99879496 -351.34880405 259.92586556 -345.77075195 259.10302734 C-345.190271 258.94785645 -344.60979004 258.79268555 -344.01171875 258.6328125 C-343.68171875 257.9728125 -343.35171875 257.3128125 -343.01171875 256.6328125 C-344.04377483 254.26062108 -344.04377483 254.26062108 -345.6171875 251.6171875 C-346.47473633 250.11091797 -346.47473633 250.11091797 -347.34960938 248.57421875 C-347.95998047 247.52105469 -348.57035156 246.46789062 -349.19921875 245.3828125 C-349.79025391 244.34511719 -350.38128906 243.30742187 -350.99023438 242.23828125 C-352.64132957 239.35576722 -354.32046642 236.49189774 -356.01171875 233.6328125 C-356.40053223 232.94896484 -356.7893457 232.26511719 -357.18994141 231.56054688 C-358.23435734 229.73441208 -358.23435734 229.73441208 -360.01171875 227.6328125 C-363.02149902 227.6328125 -365.3305587 227.78751967 -368.22607422 228.33544922 Z M-454.24609375 246.3203125 C-454.98416763 246.49861099 -455.72224152 246.67690948 -456.48268127 246.86061096 C-458.90975348 247.44839763 -461.33580263 248.04027372 -463.76171875 248.6328125 C-464.58441254 248.83300995 -465.40710632 249.0332074 -466.25473022 249.23947144 C-482.23871398 253.1332624 -498.14152548 257.30002621 -514.01171875 261.6328125 C-512.64112675 266.29996014 -510.70920132 270.0980809 -508.16796875 274.23828125 C-507.79820923 274.8441658 -507.42844971 275.45005035 -507.04748535 276.07429504 C-505.87451836 277.99314565 -504.6932188 279.90670697 -503.51171875 281.8203125 C-502.71820912 283.11620542 -501.92523518 284.41242651 -501.1328125 285.70898438 C-497.15524798 292.22355064 -497.15524798 292.22355064 -493.01171875 298.6328125 C-487.92685098 298.04587629 -483.31363401 296.90629816 -478.47265625 295.2265625 C-477.40541824 294.86525238 -477.40541824 294.86525238 -476.31661987 294.49664307 C-474.79344763 293.98067365 -473.27113808 293.46215157 -471.74963379 292.94128418 C-467.74009637 291.56942044 -463.72375915 290.21782755 -459.70703125 288.8671875 C-458.89657349 288.59440979 -458.08611572 288.32163208 -457.25109863 288.04058838 C-449.29045499 285.37160904 -441.28648086 282.85133948 -433.26171875 280.3828125 C-432.0195459 280.00060547 -430.77737305 279.61839844 -429.49755859 279.22460938 C-426.66988451 278.35754783 -423.84142264 277.49322223 -421.01171875 276.6328125 C-422.25697848 273.17678722 -423.62202291 270.58178463 -425.98828125 267.77734375 C-426.86564941 266.7263147 -426.86564941 266.7263147 -427.76074219 265.65405273 C-428.37981445 264.92516846 -428.99888672 264.19628418 -429.63671875 263.4453125 C-430.90565633 261.93288575 -432.17388862 260.41986697 -433.44140625 258.90625 C-434.05467773 258.17631836 -434.66794922 257.44638672 -435.29980469 256.69433594 C-438.14143273 253.27238683 -440.85523749 249.75464997 -443.55859375 246.22265625 C-444.038125 245.69800781 -444.51765625 245.17335937 -445.01171875 244.6328125 C-448.18071497 244.6328125 -451.18182714 245.57373935 -454.24609375 246.3203125 Z M-217.69921875 271.0703125 C-218.94856201 271.12916626 -218.94856201 271.12916626 -220.22314453 271.18920898 C-225.5137464 271.47402027 -230.75056894 272.00860829 -236.01171875 272.6328125 C-235.90102051 273.45144775 -235.79032227 274.27008301 -235.67626953 275.11352539 C-233.37163179 292.26401112 -231.31191804 309.37095614 -230.01171875 326.6328125 C-229.23795898 326.70798096 -228.46419922 326.78314941 -227.66699219 326.8605957 C-212.04164013 328.39188021 -196.50919137 330.08898987 -181.01171875 332.6328125 C-177.2288888 320.73834719 -174.30856062 308.87915671 -172.19921875 296.5703125 C-171.99272705 295.37124268 -171.78623535 294.17217285 -171.57348633 292.93676758 C-170.35053817 285.51741176 -169.51017684 278.13542183 -169.01171875 270.6328125 C-193.36207748 270.42554582 -193.36207748 270.42554582 -217.69921875 271.0703125 Z M-258.0715332 274.06005859 C-259.32973625 274.20053116 -259.32973625 274.20053116 -260.61335754 274.34384155 C-261.52469955 274.44693634 -262.43604156 274.55003113 -263.375 274.65625 C-264.31796432 274.76248688 -265.26092865 274.86872375 -266.23246765 274.97817993 C-268.23748549 275.20457041 -270.2424325 275.43158896 -272.24731445 275.65917969 C-275.27330357 276.00204349 -278.29971667 276.34096618 -281.32617188 276.6796875 C-297.6183516 277.51785097 -297.6183516 277.51785097 -313.01171875 281.6328125 C-312.90214844 282.43976563 -312.79257812 283.24671875 -312.6796875 284.078125 C-310.78873909 298.56002261 -309.42825191 313.09844423 -308.01171875 327.6328125 C-307.45081039 327.60546524 -306.88990204 327.57811798 -306.31199646 327.54994202 C-290.56842353 326.79450865 -274.83262141 326.35879854 -259.07421875 326.0703125 C-256.81835449 326.02694611 -254.56249507 325.98332738 -252.30664062 325.93945312 C-246.87505197 325.83434762 -241.44341322 325.73229159 -236.01171875 325.6328125 C-238.56500322 313.88585707 -241.80933743 302.56504469 -245.69921875 291.1953125 C-246.20314906 289.70009715 -246.70640649 288.20465485 -247.20898438 286.70898438 C-249.31506425 280.04974046 -249.31506425 280.04974046 -252.01171875 273.6328125 C-254.07099411 273.6328125 -256.02485005 273.83045382 -258.0715332 274.06005859 Z M-339.98828125 285.98828125 C-341.00691505 286.2013089 -341.00691505 286.2013089 -342.04612732 286.41864014 C-344.24410951 286.88074681 -346.44049736 287.34991343 -348.63671875 287.8203125 C-349.37904755 287.97799103 -350.12137634 288.13566956 -350.88619995 288.29812622 C-362.05843387 290.67650818 -373.06339143 293.35819897 -384.01171875 296.6328125 C-382.519606 300.58021296 -381.02622135 304.52712933 -379.53173828 308.47363281 C-379.02521732 309.81172179 -378.51902321 311.14993455 -378.01318359 312.48828125 C-375.08577121 320.23288114 -372.12890069 327.96201137 -369.01171875 335.6328125 C-357.48032429 334.2526771 -345.97974932 332.67605021 -334.48168945 331.04199219 C-327.3354724 330.03992892 -320.20591191 329.20094474 -313.01171875 328.6328125 C-311.71410602 324.7399743 -312.60626747 323.4467664 -314.109375 319.671875 C-314.58181641 318.47691406 -315.05425781 317.28195312 -315.54101562 316.05078125 C-315.79359131 315.42606934 -316.04616699 314.80135742 -316.30639648 314.15771484 C-317.05591424 312.30310525 -317.79084328 310.44262089 -318.52539062 308.58203125 C-321.76072817 300.46553518 -325.27106259 292.5278227 -329.01171875 284.6328125 C-332.93784059 284.6328125 -336.15419866 285.18445659 -339.98828125 285.98828125 Z M-418.13671875 306.9453125 C-418.77577148 307.16634644 -419.41482422 307.38738037 -420.07324219 307.6151123 C-438.14086444 313.88459521 -455.76986381 321.36091043 -473.01171875 329.6328125 C-468.74284985 337.22348335 -464.18082765 344.52199093 -459.30126953 351.73071289 C-456.09260162 356.47104676 -456.09260162 356.47104676 -455.01171875 358.6328125 C-448.95889984 357.03857821 -442.98100436 355.33377228 -437.04907227 353.33666992 C-422.18052395 348.35701899 -406.96348899 344.72541072 -391.73156738 341.05281067 C-387.45660351 340.01563184 -383.23313629 338.86575508 -379.01171875 337.6328125 C-383.30042165 329.44593766 -388.0463138 321.65647325 -393.13671875 313.9453125 C-393.83925781 312.85025391 -394.54179687 311.75519531 -395.265625 310.62695312 C-395.94753906 309.59376953 -396.62945312 308.56058594 -397.33203125 307.49609375 C-397.94320801 306.56063721 -398.55438477 305.62518066 -399.18408203 304.66137695 C-399.78720215 303.99195068 -400.39032227 303.32252441 -401.01171875 302.6328125 C-407.1012082 302.6328125 -412.43412988 304.95704379 -418.13671875 306.9453125 Z M-431.01171875 472.6328125 C-434.05656974 476.95453649 -434.76684869 480.43080627 -434.01171875 485.6328125 C-430.99286922 494.02612899 -426.95998438 500.32367014 -419.01171875 504.6328125 C-414.52716143 506.49574418 -410.76153601 507.25669298 -406.13671875 505.5078125 C-403.06414203 503.66426647 -401.82730985 502.63225394 -400.01171875 499.6328125 C-398.76363475 493.02836802 -399.81136977 487.34138921 -403.3984375 481.703125 C-408.25081319 475.47610535 -413.44741592 471.81235738 -421.01171875 469.6328125 C-425.03622552 469.6328125 -427.4714919 470.7362624 -431.01171875 472.6328125 Z M-177.01171875 472.6328125 C-180.18715197 476.11554571 -180.60011836 479.60663889 -180.41796875 484.16796875 C-179.18333109 491.65889535 -175.05286605 497.56304904 -169.18359375 502.21875 C-164.28887411 505.40559984 -159.56587514 507.24020863 -153.69921875 506.1953125 C-150.71767114 505.20741449 -149.81683892 504.43306068 -147.51171875 502.0703125 C-145.19148642 496.75311341 -145.0262931 492.60271285 -146.859375 487.078125 C-150.30329 479.3964434 -155.42970131 473.82990031 -163.32421875 470.6953125 C-168.97994166 469.06569743 -171.81954806 469.94400982 -177.01171875 472.6328125 Z " fill="#79ac31" transform="translate(591.01171875,3.3671875)"/>
<path d="M0 0 C11.95974007 9.29452296 19.18157064 20.14539846 24.83203125 33.90234375 C25.38890625 35.14177734 25.38890625 35.14177734 25.95703125 36.40625 C29.64100736 46.9154497 29.33404002 60.40509162 24.96875 70.63671875 C20.02276138 80.49470293 11.99771395 87.74011186 1.640625 91.5546875 C-3.22897086 93.09657561 -7.77213876 93.40298144 -12.85546875 93.33984375 C-13.7276001 93.33154541 -14.59973145 93.32324707 -15.49829102 93.31469727 C-35.03515643 92.80969688 -51.92259431 82.91053005 -65.265625 69.0390625 C-78.48467615 54.19138082 -83.07971368 37.7585474 -82.34277344 18.26611328 C-81.69396439 9.49269268 -77.37253181 1.99200749 -71.16796875 -4.09765625 C-49.40068084 -21.25775745 -21.50712733 -14.24084757 0 0 Z M-35.16796875 26.90234375 C-38.21281974 31.22406774 -38.92309869 34.70033752 -38.16796875 39.90234375 C-35.14911922 48.29566024 -31.11623438 54.59320139 -23.16796875 58.90234375 C-18.68341143 60.76527543 -14.91778601 61.52622423 -10.29296875 59.77734375 C-7.22039203 57.93379772 -5.98355985 56.90178519 -4.16796875 53.90234375 C-2.91988475 47.29789927 -3.96761977 41.61092046 -7.5546875 35.97265625 C-12.40706319 29.7456366 -17.60366592 26.08188863 -25.16796875 23.90234375 C-29.19247552 23.90234375 -31.6277419 25.00579365 -35.16796875 26.90234375 Z " fill="#79ac31" transform="translate(195.16796875,449.09765625)"/>
<path d="M0 0 C12.02964802 8.85780078 20.04522661 20.18707354 26.17724609 33.75244141 C26.50595703 34.43306641 26.83466797 35.11369141 27.17333984 35.81494141 C31.67789471 45.47063795 31.62897556 58.05466321 28.55224609 68.12744141 C24.70081889 78.2677375 17.36453689 86.59120686 7.42724609 91.12744141 C-5.54970683 96.49560538 -22.09902889 94.96902088 -34.82275391 89.75244141 C-45.50325502 85.15901019 -53.74224878 79.05299054 -61.82275391 70.75244141 C-62.49951172 70.07310547 -63.17626953 69.39376953 -63.87353516 68.69384766 C-74.78243623 57.05929906 -81.0072031 41.71754419 -80.82275391 25.75244141 C-80.13235353 16.71350722 -78.5493467 8.22435276 -72.63525391 1.12744141 C-60.95057346 -8.73962209 -60.95057346 -8.73962209 -53.82275391 -11.24755859 C-52.30681641 -11.83537109 -52.30681641 -11.83537109 -50.76025391 -12.43505859 C-33.52794763 -16.92543684 -14.22159411 -9.73377255 0 0 Z M-32.82275391 27.75244141 C-35.99818712 31.23517461 -36.41115352 34.7262678 -36.22900391 39.28759766 C-34.99436624 46.77852426 -30.86390121 52.68267794 -24.99462891 57.33837891 C-20.09990926 60.52522875 -15.3769103 62.35983753 -9.51025391 61.31494141 C-6.52870629 60.32704339 -5.62787408 59.55268958 -3.32275391 57.18994141 C-1.00252158 51.87274232 -0.83732825 47.72234176 -2.67041016 42.19775391 C-6.11432516 34.51607231 -11.24073647 28.94952921 -19.13525391 25.81494141 C-24.79097681 24.18532633 -27.63058322 25.06363873 -32.82275391 27.75244141 Z " fill="#79ac31" transform="translate(446.82275390625,448.24755859375)"/>
<path d="M0 0 C11.95974007 9.29452296 19.18157064 20.14539846 24.83203125 33.90234375 C25.38890625 35.14177734 25.38890625 35.14177734 25.95703125 36.40625 C29.64100736 46.9154497 29.33404002 60.40509162 24.96875 70.63671875 C20.02276138 80.49470293 11.99771395 87.74011186 1.640625 91.5546875 C-3.22897086 93.09657561 -7.77213876 93.40298144 -12.85546875 93.33984375 C-13.7276001 93.33154541 -14.59973145 93.32324707 -15.49829102 93.31469727 C-35.03515643 92.80969688 -51.92259431 82.91053005 -65.265625 69.0390625 C-78.48467615 54.19138082 -83.07971368 37.7585474 -82.34277344 18.26611328 C-81.69396439 9.49269268 -77.37253181 1.99200749 -71.16796875 -4.09765625 C-49.40068084 -21.25775745 -21.50712733 -14.24084757 0 0 Z M-68.16796875 6.90234375 C-73.83234201 15.53973059 -74.42340233 25.37607331 -72.48046875 35.40234375 C-67.81985133 53.11907435 -57.14959554 66.89188259 -41.41796875 76.15234375 C-29.3367055 82.89733704 -16.92207971 86.08591958 -3.08984375 83.27734375 C4.87199544 80.78648903 11.16424785 76.32574106 15.5 69.13671875 C20.47176485 58.49686345 19.96210401 47.63194366 16.0546875 36.734375 C9.31767024 20.39783101 -2.39456649 7.85468924 -18.16796875 -0.09765625 C-36.0565314 -7.34579 -54.47135944 -8.52730593 -68.16796875 6.90234375 Z " fill="#79ac31" transform="translate(195.16796875,449.09765625)"/>
<path d="M0 0 C12.02964802 8.85780078 20.04522661 20.18707354 26.17724609 33.75244141 C26.50595703 34.43306641 26.83466797 35.11369141 27.17333984 35.81494141 C31.67789471 45.47063795 31.62897556 58.05466321 28.55224609 68.12744141 C24.70081889 78.2677375 17.36453689 86.59120686 7.42724609 91.12744141 C-5.54970683 96.49560538 -22.09902889 94.96902088 -34.82275391 89.75244141 C-45.50325502 85.15901019 -53.74224878 79.05299054 -61.82275391 70.75244141 C-62.49951172 70.07310547 -63.17626953 69.39376953 -63.87353516 68.69384766 C-74.78243623 57.05929906 -81.0072031 41.71754419 -80.82275391 25.75244141 C-80.13235353 16.71350722 -78.5493467 8.22435276 -72.63525391 1.12744141 C-60.95057346 -8.73962209 -60.95057346 -8.73962209 -53.82275391 -11.24755859 C-52.30681641 -11.83537109 -52.30681641 -11.83537109 -50.76025391 -12.43505859 C-33.52794763 -16.92543684 -14.22159411 -9.73377255 0 0 Z M-66.82275391 8.75244141 C-72.12772166 17.91884827 -71.96285186 28.57724963 -69.76025391 38.75244141 C-65.24434352 54.51669738 -54.73338346 68.09009096 -40.54931641 76.32666016 C-27.57487153 83.11129107 -15.52453363 87.18909629 -0.68994141 84.10009766 C7.05311828 81.58737773 13.30431808 77.22314091 17.55224609 70.18994141 C22.19417136 60.37048412 22.56191522 50.13398958 19.17724609 39.75244141 C13.29297506 24.44329245 3.40523689 12.10564891 -10.82275391 3.75244141 C-11.62197266 3.28322266 -12.42119141 2.81400391 -13.24462891 2.33056641 C-31.83686679 -7.73529487 -52.32848257 -7.68326443 -66.82275391 8.75244141 Z " fill="#79ac31" transform="translate(446.82275390625,448.24755859375)"/>
<path d="M0 0 C7.28728835 7.626232 11.06994994 15.32822441 12.0625 25.75 C11.85570564 31.60917359 9.72248971 36.58151742 5.78125 40.90234375 C-0.09714802 46.26528523 -4.4733386 47.25351278 -12.375 47.1484375 C-21.03006517 46.15862952 -28.79070065 40.30214241 -34.3125 33.8125 C-40.32872588 24.6993608 -42.99506814 16.47406815 -40.86328125 5.5 C-39.25471466 0.09029834 -35.96708156 -3.13794656 -31.3125 -6.1875 C-19.81039922 -11.81074927 -9.8013939 -6.47261862 0 0 Z M-29.3125 3.8125 C-32.35735099 8.13422399 -33.06762994 11.61049377 -32.3125 16.8125 C-29.29365047 25.20581649 -25.26076563 31.50335764 -17.3125 35.8125 C-12.82794268 37.67543168 -9.06231726 38.43638048 -4.4375 36.6875 C-1.36492328 34.84395397 -0.1280911 33.81194144 1.6875 30.8125 C2.935584 24.20805552 1.88784898 18.52107671 -1.69921875 12.8828125 C-6.55159444 6.65579285 -11.74819717 2.99204488 -19.3125 0.8125 C-23.33700677 0.8125 -25.77227315 1.9159499 -29.3125 3.8125 Z " fill="#79ac31" transform="translate(189.3125,472.1875)"/>
<path d="M0 0 C8.24434188 5.37771088 14.31727258 12.26089434 16.8984375 21.890625 C17.77912106 28.99899944 17.97701062 35.99175169 14.16796875 42.27734375 C10.31329053 47.17575023 5.6347162 50.27676562 -0.57421875 51.296875 C-10.37778024 51.65175505 -18.27443112 47.82299415 -25.4765625 41.265625 C-33.00352194 32.93557993 -36.10781263 24.55536022 -35.625 13.32421875 C-34.68012561 7.12612479 -32.04365268 3.78291799 -27.6640625 -0.484375 C-18.33322854 -6.40148922 -9.33156004 -5.13355745 0 0 Z M-23.1015625 7.890625 C-26.27699572 11.37335821 -26.68996211 14.86445139 -26.5078125 19.42578125 C-25.27317484 26.91670785 -21.1427098 32.82086154 -15.2734375 37.4765625 C-10.37871786 40.66341234 -5.65571889 42.49802113 0.2109375 41.453125 C3.19248511 40.46522699 4.09331733 39.69087318 6.3984375 37.328125 C8.71866983 32.01092591 8.88386315 27.86052535 7.05078125 22.3359375 C3.60686625 14.6542559 -1.51954506 9.08771281 -9.4140625 5.953125 C-15.06978541 4.32350993 -17.90939181 5.20182232 -23.1015625 7.890625 Z " fill="#79ac31" transform="translate(437.1015625,468.109375)"/>
</svg>
